<svg width="105" height="26" viewBox="0 0 105 26" fill="none" xmlns="http://www.w3.org/2000/svg">
<path d="M5.12 25C4.10667 25 3.37333 24.8533 2.92 24.56C2.46667 24.24 2.18667 23.9333 2.08 23.64C1.97333 23.3467 1.92 23.2 1.92 23.2C1.92 23.2 1.90667 22.88 1.88 22.24C1.88 21.5733 1.86667 20.7067 1.84 19.64C1.84 18.5733 1.82667 17.4 1.8 16.12C1.77333 14.84 1.74667 13.56 1.72 12.28C1.72 11 1.70667 9.82667 1.68 8.76C1.65333 7.69333 1.62667 6.84 1.6 6.2C1.6 5.53333 1.6 5.2 1.6 5.2C1.57333 5.2 1.42667 5.06667 1.16 4.8C0.92 4.53333 0.786667 4.25333 0.76 3.96C0.76 3.74667 1.01333 3.44 1.52 3.04C2.02667 2.64 2.88 2.30667 4.08 2.04C5.30667 1.74667 6.98667 1.69333 9.12 1.88C11.04 2.04 12.5467 2.36 13.64 2.84C14.76 3.29333 15.5733 3.78667 16.08 4.32C16.5867 4.82667 16.9067 5.28 17.04 5.68C17.1733 6.05333 17.24 6.24 17.24 6.24C17.24 6.24 17.2533 6.28 17.28 6.36C17.3333 6.44 17.3733 6.69333 17.4 7.12C17.4533 7.52 17.4933 8.18667 17.52 9.12C17.5467 10.0533 17.5467 11.36 17.52 13.04C17.4933 14.4 17.1733 15.48 16.56 16.28C15.9733 17.08 15.24 17.68 14.36 18.08C13.48 18.4533 12.6 18.7067 11.72 18.84C10.8667 18.9467 10.1467 19 9.56 19C8.97333 18.9733 8.68 18.96 8.68 18.96C8.68 18.96 8.68 19.2533 8.68 19.84C8.70667 20.4 8.70667 21.3467 8.68 22.68C8.68 23.3467 8.49333 23.8533 8.12 24.2C7.77333 24.52 7.36 24.7333 6.88 24.84C6.42667 24.9467 6.01333 25 5.64 25C5.29333 25 5.12 25 5.12 25ZM8.28 5.6L8.64 15.52C8.64 15.52 8.81333 15.5067 9.16 15.48C9.50667 15.4267 9.90667 15.2933 10.36 15.08C10.8133 14.8667 11.2 14.5067 11.52 14C11.8667 13.4667 12.0133 12.72 11.96 11.76C11.9067 10.48 11.8533 9.52 11.8 8.88C11.7467 8.24 11.7067 7.82667 11.68 7.64C11.68 7.42667 11.68 7.32 11.68 7.32C11.68 7.32 11.6533 7.21333 11.6 7C11.5733 6.76 11.4667 6.50667 11.28 6.24C11.0933 5.97333 10.76 5.77333 10.28 5.64C9.82667 5.48 9.16 5.46667 8.28 5.6ZM19.3575 11.16C19.3575 11.16 19.3575 11.04 19.3575 10.8C19.3842 10.56 19.4775 10.2933 19.6375 10C19.7975 9.68 20.0908 9.4 20.5175 9.16C20.9708 8.92 21.6108 8.8 22.4375 8.8C23.4508 8.8 24.1708 8.94667 24.5975 9.24C25.0508 9.50667 25.3175 9.84 25.3975 10.24C25.5042 10.6133 25.5308 10.9867 25.4775 11.36C25.4242 11.7067 25.3975 11.9467 25.3975 12.08C25.3975 12.1867 25.3975 12.5867 25.3975 13.28C25.4242 13.9467 25.4775 14.7467 25.5575 15.68C25.6375 16.6133 25.7708 17.5333 25.9575 18.44C26.1442 19.3467 26.4108 20.1067 26.7575 20.72C27.1042 21.3067 27.5575 21.5867 28.1175 21.56C28.6775 21.5333 29.0508 21.24 29.2375 20.68C29.4242 20.12 29.4908 19.4267 29.4375 18.6C29.4108 17.7733 29.3175 16.9467 29.1575 16.12C28.9975 15.2933 28.8375 14.5867 28.6775 14C28.5175 13.3867 28.4375 13.04 28.4375 12.96C28.4375 12.8533 28.3975 12.6667 28.3175 12.4C28.2642 12.1067 28.2642 11.7867 28.3175 11.44C28.3975 11.0933 28.6242 10.7733 28.9975 10.48C29.3708 10.1867 29.9842 10 30.8375 9.92C31.6908 9.84 32.3575 9.89333 32.8375 10.08C33.3442 10.24 33.7042 10.4533 33.9175 10.72C34.1575 10.9867 34.3042 11.24 34.3575 11.48C34.4108 11.6933 34.4375 11.8 34.4375 11.8C34.4375 11.8 34.5308 12.12 34.7175 12.76C34.9042 13.4 35.0775 14.2267 35.2375 15.24C35.3975 16.2267 35.4508 17.28 35.3975 18.4C35.3708 19.52 35.1308 20.5867 34.6775 21.6C34.2508 22.5867 33.5308 23.4 32.5175 24.04C31.5308 24.68 30.1442 25 28.3575 25C26.5708 25 25.1042 24.6667 23.9575 24C22.8108 23.3333 21.9042 22.48 21.2375 21.44C20.5975 20.3733 20.1308 19.2533 19.8375 18.08C19.5442 16.9067 19.3708 15.8 19.3175 14.76C19.2642 13.6933 19.2508 12.8267 19.2775 12.16C19.3308 11.4933 19.3575 11.16 19.3575 11.16ZM37.17 10.2C37.17 10.2 37.1967 10.1067 37.25 9.92C37.3033 9.70667 37.45 9.48 37.69 9.24C37.93 9 38.33 8.81333 38.89 8.68C39.45 8.54667 40.2233 8.53333 41.21 8.64C42.2233 8.74667 43.2233 8.84 44.21 8.92C45.2233 8.97333 46.1567 9.01333 47.01 9.04C47.8633 9.06667 48.5433 9.08 49.05 9.08C49.5567 9.08 49.81 9.08 49.81 9.08C49.81 9.08 49.97 9.06667 50.29 9.04C50.6367 8.98667 51.05 8.96 51.53 8.96C52.01 8.93333 52.4767 8.96 52.93 9.04C53.41 9.12 53.7833 9.28 54.05 9.52C54.5833 10 54.7433 10.4533 54.53 10.88C54.3433 11.28 54.1433 11.6 53.93 11.84C53.85 11.92 53.6233 12.2 53.25 12.68C52.9033 13.16 52.4633 13.76 51.93 14.48C51.3967 15.1733 50.8367 15.9067 50.25 16.68C49.69 17.4267 49.1567 18.1467 48.65 18.84C48.1433 19.5067 47.73 20.0533 47.41 20.48C47.09 20.9067 46.93 21.12 46.93 21.12L51.81 21.32C51.81 21.32 51.9967 21.3333 52.37 21.36C52.77 21.36 53.2233 21.4 53.73 21.48C54.2367 21.56 54.6767 21.7333 55.05 22C55.45 22.24 55.65 22.6 55.65 23.08C55.65 23.56 55.4767 23.9333 55.13 24.2C54.81 24.4667 54.3967 24.6533 53.89 24.76C53.41 24.8667 52.93 24.9333 52.45 24.96C51.9967 24.9867 51.65 25 51.41 25C51.09 25 50.4633 24.96 49.53 24.88C48.6233 24.8 47.5567 24.76 46.33 24.76C45.13 24.7333 43.93 24.8133 42.73 25C41.53 25.1867 40.57 25.2 39.85 25.04C39.13 24.88 38.5967 24.64 38.25 24.32C37.93 24 37.77 23.6933 37.77 23.4C37.77 23.1867 37.9033 22.8933 38.17 22.52C38.4633 22.1467 38.7967 21.7733 39.17 21.4C39.5433 21 39.8633 20.68 40.13 20.44C40.4233 20.1733 40.57 20.04 40.57 20.04C40.57 20.04 40.7567 19.7867 41.13 19.28C41.53 18.7733 42.01 18.1467 42.57 17.4C43.1567 16.6533 43.7433 15.9067 44.33 15.16C44.9167 14.3867 45.3967 13.7467 45.77 13.24C46.17 12.7333 46.37 12.48 46.37 12.48C46.37 12.48 46.0633 12.48 45.45 12.48C44.8367 12.48 44.0633 12.4533 43.13 12.4C42.2233 12.3467 41.3033 12.2533 40.37 12.12C39.4633 11.96 38.7033 11.7333 38.09 11.44C37.4767 11.12 37.17 10.7067 37.17 10.2ZM57.4825 10.2C57.4825 10.2 57.5092 10.1067 57.5625 9.92C57.6158 9.70667 57.7625 9.48 58.0025 9.24C58.2425 9 58.6425 8.81333 59.2025 8.68C59.7625 8.54667 60.5358 8.53333 61.5225 8.64C62.5358 8.74667 63.5358 8.84 64.5225 8.92C65.5358 8.97333 66.4692 9.01333 67.3225 9.04C68.1758 9.06667 68.8558 9.08 69.3625 9.08C69.8692 9.08 70.1225 9.08 70.1225 9.08C70.1225 9.08 70.2825 9.06667 70.6025 9.04C70.9492 8.98667 71.3625 8.96 71.8425 8.96C72.3225 8.93333 72.7892 8.96 73.2425 9.04C73.7225 9.12 74.0958 9.28 74.3625 9.52C74.8958 10 75.0558 10.4533 74.8425 10.88C74.6558 11.28 74.4558 11.6 74.2425 11.84C74.1625 11.92 73.9358 12.2 73.5625 12.68C73.2158 13.16 72.7758 13.76 72.2425 14.48C71.7092 15.1733 71.1492 15.9067 70.5625 16.68C70.0025 17.4267 69.4692 18.1467 68.9625 18.84C68.4558 19.5067 68.0425 20.0533 67.7225 20.48C67.4025 20.9067 67.2425 21.12 67.2425 21.12L72.1225 21.32C72.1225 21.32 72.3092 21.3333 72.6825 21.36C73.0825 21.36 73.5358 21.4 74.0425 21.48C74.5492 21.56 74.9892 21.7333 75.3625 22C75.7625 22.24 75.9625 22.6 75.9625 23.08C75.9625 23.56 75.7892 23.9333 75.4425 24.2C75.1225 24.4667 74.7092 24.6533 74.2025 24.76C73.7225 24.8667 73.2425 24.9333 72.7625 24.96C72.3092 24.9867 71.9625 25 71.7225 25C71.4025 25 70.7758 24.96 69.8425 24.88C68.9358 24.8 67.8692 24.76 66.6425 24.76C65.4425 24.7333 64.2425 24.8133 63.0425 25C61.8425 25.1867 60.8825 25.2 60.1625 25.04C59.4425 24.88 58.9092 24.64 58.5625 24.32C58.2425 24 58.0825 23.6933 58.0825 23.4C58.0825 23.1867 58.2158 22.8933 58.4825 22.52C58.7758 22.1467 59.1092 21.7733 59.4825 21.4C59.8558 21 60.1758 20.68 60.4425 20.44C60.7358 20.1733 60.8825 20.04 60.8825 20.04C60.8825 20.04 61.0692 19.7867 61.4425 19.28C61.8425 18.7733 62.3225 18.1467 62.8825 17.4C63.4692 16.6533 64.0558 15.9067 64.6425 15.16C65.2292 14.3867 65.7092 13.7467 66.0825 13.24C66.4825 12.7333 66.6825 12.48 66.6825 12.48C66.6825 12.48 66.3758 12.48 65.7625 12.48C65.1492 12.48 64.3758 12.4533 63.4425 12.4C62.5358 12.3467 61.6158 12.2533 60.6825 12.12C59.7758 11.96 59.0158 11.7333 58.4025 11.44C57.7892 11.12 57.4825 10.7067 57.4825 10.2ZM81.275 0.919998C81.275 0.919998 81.4483 0.933332 81.795 0.96C82.1417 0.96 82.5417 1.02667 82.995 1.16C83.4483 1.26667 83.8483 1.46667 84.195 1.76C84.5417 2.05333 84.715 2.46667 84.715 3C84.715 3.34667 84.7283 4.05333 84.755 5.12C84.7817 6.18667 84.8083 7.45333 84.835 8.92C84.8617 10.36 84.8883 11.8533 84.915 13.4C84.9683 14.92 85.0083 16.3467 85.035 17.68C85.0617 19.0133 85.075 20.0933 85.075 20.92C85.1017 21.7467 85.115 22.16 85.115 22.16C85.115 22.16 85.115 22.3067 85.115 22.6C85.115 22.8667 85.035 23.2 84.875 23.6C84.715 23.9733 84.4083 24.3067 83.955 24.6C83.5017 24.8667 82.835 25 81.955 25C80.7817 25 79.9283 24.8533 79.395 24.56C78.8617 24.24 78.5283 23.8933 78.395 23.52C78.2883 23.12 78.2483 22.8133 78.275 22.6C78.3017 22.4933 78.315 22.0267 78.315 21.2C78.315 20.3733 78.3017 19.3333 78.275 18.08C78.275 16.8267 78.2617 15.48 78.235 14.04C78.2083 12.6 78.1817 11.1867 78.155 9.8C78.1283 8.38667 78.0883 7.13333 78.035 6.04C78.0083 4.92 77.9817 4.09333 77.955 3.56C77.9017 2.81333 78.075 2.25333 78.475 1.88C78.9017 1.50667 79.3817 1.26667 79.915 1.16C80.475 1.02667 80.9283 0.946666 81.275 0.919998ZM103.211 12.92C103.131 14.2533 102.758 15.3333 102.091 16.16C101.424 16.96 100.611 17.5733 99.6509 18C98.7176 18.4 97.7843 18.68 96.8509 18.84C95.9176 18.9733 95.1309 19.04 94.4909 19.04C93.8776 19.04 93.5709 19.04 93.5709 19.04C93.7309 19.9733 93.9576 20.64 94.2509 21.04C94.5443 21.44 94.8643 21.6667 95.2109 21.72C95.5843 21.7733 95.9309 21.7467 96.2509 21.64C96.5709 21.5067 96.8243 21.36 97.0109 21.2C97.2243 21.04 97.3309 20.96 97.3309 20.96C97.3309 20.96 97.4776 20.84 97.7709 20.6C98.0643 20.36 98.5176 20.1333 99.1309 19.92C99.7709 19.68 100.571 19.56 101.531 19.56C102.624 19.56 103.358 19.7067 103.731 20C104.131 20.2667 104.318 20.5867 104.291 20.96C104.291 21.3067 104.211 21.6267 104.051 21.92C103.918 22.1867 103.851 22.32 103.851 22.32C103.851 22.32 103.731 22.4533 103.491 22.72C103.278 22.96 102.878 23.2533 102.291 23.6C101.704 23.9467 100.891 24.2667 99.8509 24.56C98.8109 24.8267 97.4776 24.9733 95.8509 25C94.2776 25.0267 92.9576 24.8133 91.8909 24.36C90.8243 23.9067 89.9443 23.32 89.2509 22.6C88.5576 21.8533 88.0243 21.08 87.6509 20.28C87.3043 19.4533 87.0509 18.6933 86.8909 18C86.7576 17.28 86.6909 16.72 86.6909 16.32C86.6909 15.92 86.7176 15.4 86.7709 14.76C86.8509 14.12 87.0243 13.4533 87.2909 12.76C87.5843 12.04 88.0243 11.36 88.6109 10.72C89.1976 10.08 89.9976 9.56 91.0109 9.16C92.0509 8.76 93.3709 8.54667 94.9709 8.52C96.9709 8.49333 98.5309 8.66667 99.6509 9.04C100.771 9.41333 101.584 9.86667 102.091 10.4C102.598 10.9333 102.904 11.44 103.011 11.92C103.144 12.4 103.211 12.7333 103.211 12.92ZM93.0109 16.28C94.6376 16.1467 95.8509 15.8 96.6509 15.24C97.4509 14.68 97.9176 14.0533 98.0509 13.36C98.1843 12.6667 98.0509 12.08 97.6509 11.6C97.2776 11.0933 96.7043 10.8667 95.9309 10.92C95.1576 10.9467 94.5709 11.24 94.1709 11.8C93.7709 12.3333 93.4909 12.96 93.3309 13.68C93.1709 14.3733 93.0776 14.9867 93.0509 15.52C93.0243 16.0267 93.0109 16.28 93.0109 16.28Z" fill="#FF005E"/>
</svg>
